<svg width="203" height="204" viewBox="0 0 203 204" fill="none" xmlns="http://www.w3.org/2000/svg">
<rect width="203" height="204" fill="#4726D1"/>
<path d="M13.8203 129.968V72.5959H54.12V81.2411H23.4333V99.7096H49.9075V107.02H23.4333V129.968H13.8203Z" fill="#DAF5FF"/>
<path d="M189.591 120.222C185.887 126.196 179.66 130.754 169.886 130.754C154.674 130.754 146.95 121.087 146.95 108.198C146.95 95.7022 155.463 85.0918 169.571 85.0918C183.837 85.0918 190.694 95.3093 190.694 107.255V110.556H156.251C156.96 118.1 161.531 122.816 169.728 122.816C175.64 122.816 179.029 120.301 181.631 115.822L189.591 120.222ZM156.329 104.585H181.318C180.923 97.9052 177.377 92.9558 169.495 92.9558C162.005 92.9512 157.355 97.352 156.329 104.583V104.585Z" fill="#DAF5FF"/>
<path d="M131.936 87.6946V112.193C131.936 118.67 126.884 123.308 120.866 123.308C114.692 123.308 110.587 118.99 110.587 112.993V87.6946H101.79V113.635C101.79 123.71 108.921 130.744 118.864 130.827C130.014 130.919 131.936 122.882 131.936 122.882V127.118C131.846 140.475 126.227 150.367 113.647 150.367C100.885 150.367 97.1684 144.014 94.9629 137.676H85.8125C90.701 155.81 104.549 158.184 113.647 158.184C136.704 158.184 140.757 139.393 140.757 127.122V87.6998L131.936 87.6946Z" fill="#DAF5FF"/>
<path d="M76.423 85.0918C66.6492 85.0918 58.8463 89.7291 55.1399 98.8454L63.7315 101.596C65.7017 95.938 69.6421 92.6365 76.027 92.6365C82.6479 92.6365 85.0911 95.5445 85.0911 98.7672C85.0911 101.99 82.4113 103.404 74.5293 105.054C66.9629 106.627 62.8664 107.726 59.7115 109.692C56.322 111.813 54.1152 114.721 54.1152 119.751C54.1152 126.431 59.1599 130.754 67.9875 130.754C76.031 130.754 79.9878 128.153 85.1702 122.881V130.754H94.2337V100.811C94.2357 90.5149 87.3789 85.0918 76.423 85.0918ZM85.4081 109.298C85.4081 117.452 79.4178 123.602 71.6149 123.602C66.4918 123.602 63.7335 121.637 63.7335 118.179C63.7335 113.7 67.6034 112.339 75.3964 110.32C81.1627 108.826 82.2914 108.406 85.4061 107.605L85.4081 109.298Z" fill="#DAF5FF"/>
</svg>
