<svg id="Wordmark" xmlns="http://www.w3.org/2000/svg" viewBox="0 0 2695.67 1313.94"><defs><style>.cls-1{fill:#4726d1;}</style></defs><path class="cls-1" d="M5.67,878.88V5.67h611.6V137.25H151.6v281.1H553.38V529.59H151.6V878.88Z"/><path class="cls-1" d="M2673.26,730.55c-56.22,90.91-150.72,160.29-299,160.29-230.86,0-348.09-147.13-348.09-343.3,0-190.2,129.19-351.68,343.3-351.68,216.51,0,320.58,155.51,320.58,337.32v50.24H2167.28C2178,698.25,2247.42,770,2371.83,770c89.71,0,141.14-38.27,180.62-106.46Zm-504.79-238h379.2c-6-101.67-59.82-177-179.43-177C2254.6,315.48,2184,382.46,2168.47,492.51Z"/><path class="cls-1" d="M1798.27,235.46V608.37c0,98.58-76.67,169.17-168,169.17-93.7,0-156-65.73-156-157V235.46H1340.77V630.27c0,153.35,108.22,260.41,259.12,261.67C1769.12,893.34,1798.27,771,1798.27,771V835.5c-1.36,203.29-86.62,353.79-277.56,353.79-193.67,0-250.07-96.68-283.55-193.16H1098.3c74.18,276,284.35,312.14,422.41,312.14,349.94,0,411.43-286,411.43-472.77v-600Z"/><path class="cls-1" d="M955.79,195.86c-148.32,0-266.75,70.57-323,209.33l130.39,41.87c29.9-86.13,89.71-136.37,186.6-136.37,100.48,0,137.56,44.26,137.56,93.31s-40.67,70.57-160.29,95.69c-114.83,23.92-177,40.67-224.88,70.57-51.44,32.3-84.93,76.56-84.93,153.11,0,101.68,76.56,167.47,210.53,167.47,122.07,0,182.12-39.58,260.77-119.83V890.84h137.55V435.09C1226.12,278.4,1122.06,195.86,955.79,195.86Zm136.36,368.42c0,124.1-90.91,217.71-209.32,217.71-77.76,0-119.62-29.91-119.62-82.54,0-68.18,58.73-88.88,177-119.62,87.51-22.73,104.64-29.12,151.91-41.33Z"/></svg>